<svg xmlns="http://www.w3.org/2000/svg" xmlns:xlink="http://www.w3.org/1999/xlink" version="1.1" width="50" height="25" enable-background="new 0 0 50 50" xml:space="preserve" style=""><rect id="backgroundrect" width="100%" height="100%" x="0" y="0" fill="none" stroke="none"/>
  
<g class="currentLayer" style=""><title>Layer 1</title><g id="svg_1" class="selected" fill="#ffffff" fill-opacity="1" stroke="#ffffff" stroke-opacity="1">
    <polygon points="20.118999481201172,9.639999985694885 13.96500015258789,9.639999985694885 13.96500015258789,6.525000214576721 18.395999908447266,6.525000214576721 18.395999908447266,4.819000840187073 13.96500015258789,4.819000840187073 13.96500015258789,1.7059999704360962 20.118999481201172,1.7059999704360962 20.118999481201172,5.960464477539062e-7 12.14799976348877,5.960464477539062e-7 12.14799976348877,11.345999360084534 20.118999481201172,11.345999360084534 " id="svg_2" fill="#ffffff" fill-opacity="1" stroke="#ffffff" stroke-opacity="1"/>
    <path d="M19.977,14.570000123023988 c-0.5930000000000002,-0.5830000000000002 -1.343,-0.8230000000000002 -2.601,-0.8230000000000002 h-0.002000000000000001 h-1.8880000000000003 h-0.002000000000000001 c-1.258,0 -2.009,0.24000000000000005 -2.6020000000000003,0.8230000000000002 c-0.5800000000000002,0.555 -0.798,1.287 -0.798,2.579 v4.542 c0,1.2890000000000001 0.21800000000000005,2.025 0.798,2.5860000000000003 c0.5930000000000002,0.5760000000000002 1.344,0.8140000000000002 2.6020000000000003,0.8140000000000002 h0.002000000000000001 h1.8880000000000003 h0.002000000000000001 c1.258,0 2.008,-0.23800000000000004 2.601,-0.8140000000000002 c0.5800000000000002,-0.561 0.799,-1.2970000000000002 0.799,-2.5860000000000003 v-4.542 C20.775,15.858000123023988 20.557,15.125000123023987 19.977,14.570000123023988 zM18.959,21.349000123023984 c0,1.054 -0.06800000000000003,1.408 -0.3430000000000002,1.701 c-0.27,0.272 -0.5890000000000002,0.3360000000000002 -1.6960000000000004,0.3360000000000002 H15.94 c-1.107,0 -1.427,-0.06300000000000003 -1.6960000000000004,-0.3360000000000002 c-0.275,-0.2930000000000001 -0.3430000000000002,-0.6470000000000002 -0.3430000000000002,-1.701 v-3.854 c0,-1.061 0.06700000000000003,-1.416 0.3430000000000002,-1.7040000000000002 c0.27,-0.268 0.5890000000000002,-0.3390000000000002 1.6960000000000004,-0.3390000000000002 h0.979 c1.107,0 1.427,0.07100000000000002 1.6960000000000004,0.3390000000000002 c0.274,0.2880000000000001 0.3430000000000002,0.6440000000000002 0.3430000000000002,1.7040000000000002 V21.349000123023984 z" id="svg_3" fill="#ffffff" fill-opacity="1" stroke="#ffffff" stroke-opacity="1"/>
    <path d="M29.525,0.8230001230239862 c-0.5920000000000002,-0.5830000000000002 -1.343,-0.8230000000000002 -2.601,-0.8230000000000002 h-0.002000000000000001 h-4.978 V11.346000123023988 h4.978 h0.002000000000000001 c1.258,0 2.009,-0.23900000000000005 2.601,-0.8140000000000002 c0.5800000000000002,-0.561 0.799,-1.2970000000000002 0.799,-2.587 v-4.542 C30.324,2.1110001230239863 30.105,1.3780001230239876 29.525,0.8230001230239862 zM28.507,7.602000123023988 c0,1.055 -0.06600000000000003,1.408 -0.3420000000000002,1.702 c-0.27,0.272 -0.5890000000000002,0.3360000000000002 -1.6960000000000004,0.3360000000000002 h-2.707 V1.706000123023987 h2.707 c1.107,0 1.427,0.07 1.6960000000000004,0.3380000000000002 c0.275,0.2880000000000001 0.3420000000000002,0.6440000000000002 0.3420000000000002,1.7040000000000002 V7.602000123023988 z" id="svg_4" fill="#ffffff" fill-opacity="1" stroke="#ffffff" stroke-opacity="1"/>
    <polygon points="38.89099884033203,1.7059999704360962 38.89099884033203,5.960464477539062e-7 31.711000442504883,5.960464477539062e-7 31.711000442504883,1.7059999704360962 34.393001556396484,1.7059999704360962 34.393001556396484,9.639999985694885 31.711000442504883,9.639999985694885 31.711000442504883,11.345999360084534 38.89099884033203,11.345999360084534 38.89099884033203,9.639999985694885 36.20899963378906,9.639999985694885 36.20899963378906,1.7059999704360962 " id="svg_5" fill="#ffffff" fill-opacity="1" stroke="#ffffff" stroke-opacity="1"/>
    <path d="M48.619,5.104000123023987 l-2.125,-4.604 c-0.126,-0.2960000000000001 -0.4130000000000001,-0.5 -0.7470000000000002,-0.5 c-0.011000000000000006,0 -2.259,0 -2.269,0 c-0.3340000000000002,0 -0.6210000000000002,0.20400000000000001 -0.7480000000000002,0.5 l-2.124,4.604 c-0.11000000000000003,0.24100000000000005 -0.18400000000000005,0.515 -0.18400000000000005,0.799 V11.346000123023988 h1.8170000000000002 v-3.114 h4.745 V11.346000123023988 h1.816 v-5.443 C48.802,5.618000123023986 48.729,5.345000123023986 48.619,5.104000123023987 zM46.985,6.525000123023986 H42.24 v-0.7360000000000002 l1.924,-4.083 h0.8970000000000002 l1.924,4.083 V6.525000123023986 z" id="svg_6" fill="#ffffff" fill-opacity="1" stroke="#ffffff" stroke-opacity="1"/>
    <polygon points="29.19499969482422,19.428999543190002 24.448999404907227,13.747000336647034 22.632999420166016,13.747000336647034 22.632999420166016,25.09200155735016 24.448999404907227,25.09200155735016 24.448999404907227,16.29200041294098 29.19499969482422,21.975000977516174 29.19499969482422,25.09200155735016 31.011999130249023,25.09200155735016 31.011999130249023,13.747000336647034 29.19499969482422,13.747000336647034 " id="svg_7" fill="#ffffff" fill-opacity="1" stroke="#ffffff" stroke-opacity="1"/>
    <path d="M46.177,18.608000123023988 c-1.2890000000000001,-0.556 -2.653,-1.068 -2.653,-1.978 c0,-0.6260000000000002 0.4860000000000001,-1.178 1.098,-1.178 h2.494 c0.6140000000000002,0 1.1,0.4970000000000001 1.1,1.1 v0.2980000000000001 H50 v-0.23900000000000005 c0,-1.577 -1.295,-2.863 -2.8850000000000002,-2.863 h-2.422 c-1.586,0 -2.8760000000000003,1.295 -2.8760000000000003,2.883 c0,2.033 2.1470000000000002,2.872 3.823,3.6020000000000003 c1.29,0.556 2.654,1.068 2.654,1.978 c0,0.6260000000000002 -0.4860000000000001,1.177 -1.099,1.177 h-2.494 c-0.6130000000000002,0 -1.1,-0.4960000000000001 -1.1,-1.099 v-0.2980000000000001 h-1.7850000000000001 v0.23900000000000005 c0,1.577 1.296,2.863 2.8850000000000002,2.863 h2.422 c1.586,0 2.8760000000000003,-1.295 2.8760000000000003,-2.883 C50,20.17600012302399 47.853,19.337000123023987 46.177,18.608000123023988 z" id="svg_8" fill="#ffffff" fill-opacity="1" stroke="#ffffff" stroke-opacity="1"/>
    <polygon points="36.43000030517578,19.358999848365784 41.26599884033203,13.747000336647034 38.8849983215332,13.747000336647034 34.96900177001953,18.567000031471252 34.96900177001953,13.747000336647034 33.152000427246094,13.747000336647034 33.152000427246094,25.09200155735016 34.96900177001953,25.09200155735016 34.96900177001953,20.273001313209534 39.05500030517578,25.09200155735016 41.48699951171875,25.09200155735016 " id="svg_9" fill="#ffffff" fill-opacity="1" stroke="#ffffff" stroke-opacity="1"/>
    <polyline points="8.378999710083008,2.8720003366470337 5.834000110626221,6.525000214576721 4.361000061035156,6.525000214576721 1.815999984741211,2.8720003366470337 1.815999984741211,11.345999360084534 0,11.345999360084534 0,5.960464477539062e-7 1.815999984741211,5.960464477539062e-7 5.098999977111816,4.709999680519104 8.378999710083008,5.960464477539062e-7 10.196000099182129,5.960464477539062e-7 10.196000099182129,11.345999360084534 8.378999710083008,11.345999360084534 8.378999710083008,2.8720003366470337 " id="svg_10" fill="#ffffff" fill-opacity="1" stroke="#ffffff" stroke-opacity="1"/>
    <polyline points="8.378999710083008,16.61900007724762 5.834000110626221,20.273001313209534 4.361000061035156,20.273001313209534 1.815999984741211,16.61900007724762 1.815999984741211,25.09200155735016 0,25.09200155735016 0,13.747000336647034 1.815999984741211,13.747000336647034 5.098999977111816,18.45699942111969 8.378999710083008,13.747000336647034 10.196000099182129,13.747000336647034 10.196000099182129,25.09200155735016 8.378999710083008,25.09200155735016 8.378999710083008,16.61900007724762 " id="svg_11" fill="#ffffff" fill-opacity="1" stroke="#ffffff" stroke-opacity="1"/>
  </g></g></svg>